HIERARCHY
ROOT Hips
{
	OFFSET 0.000000 0.000000 0.000000 
	CHANNELS 6 Xposition Yposition Zposition Zrotation Yrotation Xrotation
	JOINT LeftUpLeg
	{
		OFFSET 1.363060 -1.794630 0.839290 
		CHANNELS 3 Zrotation Yrotation Xrotation
		JOINT LeftLeg
		{
			OFFSET 2.448110 -6.726130 0.000000 
			CHANNELS 3 Zrotation Yrotation Xrotation
			JOINT LeftFoot
			{
				OFFSET 2.562200 -7.039590 0.000000 
				CHANNELS 3 Zrotation Yrotation Xrotation
				JOINT LeftToeBase
				{
					OFFSET 0.157640 -0.433110 2.322550 
					CHANNELS 3 Zrotation Yrotation Xrotation
					End Site
					{
						OFFSET 0.000000 0.000000 0.000000 
					}
				}
			}
		}
	}
	JOINT RightUpLeg
	{
		OFFSET -1.305520 -1.794630 0.839290 
		CHANNELS 3 Zrotation Yrotation Xrotation
		JOINT RightLeg
		{
			OFFSET -2.542530 -6.985550 0.000000 
			CHANNELS 3 Zrotation Yrotation Xrotation
			JOINT RightFoot
			{
				OFFSET -2.568260 -7.056230 0.000000 
				CHANNELS 3 Zrotation Yrotation Xrotation
				JOINT RightToeBase
				{
					OFFSET -0.164730 -0.452590 2.363150 
					CHANNELS 3 Zrotation Yrotation Xrotation
					End Site
					{
						OFFSET 0.000000 0.000000 0.000000 
					}
				}
			}
		}
	}
	JOINT Spine
	{
		OFFSET 0.028270 2.035590 -0.193380 
		CHANNELS 3 Zrotation Yrotation Xrotation
		JOINT Spine1
		{
			OFFSET 0.056720 2.048850 -0.042750 
			CHANNELS 3 Zrotation Yrotation Xrotation
			JOINT Neck1
			{
				OFFSET -0.054170 1.746240 0.172020 
				CHANNELS 3 Zrotation Yrotation Xrotation
				JOINT Head
				{
					OFFSET 0.104070 1.761360 -0.123970 
					CHANNELS 3 Zrotation Yrotation Xrotation
					End Site
					{
						OFFSET 0.000000 0.000000 0.000000 
					}
				}
			}
			JOINT LeftArm
			{
				OFFSET 3.362410 1.200890 -0.311210 
				CHANNELS 3 Zrotation Yrotation Xrotation
				JOINT LeftForeArm
				{
					OFFSET 4.983000 -0.000000 -0.000000 
					CHANNELS 3 Zrotation Yrotation Xrotation
					JOINT LeftHand
					{
						OFFSET 3.483560 -0.000000 -0.000000 
						CHANNELS 3 Zrotation Yrotation Xrotation
						JOINT LeftHandIndex1
						{
							OFFSET 0.715260 -0.000000 -0.000000 
							CHANNELS 3 Zrotation Yrotation Xrotation
							End Site
							{
								OFFSET 0.000000 0.000000 0.000000 
							}
						}
					}
				}
			}
			JOINT RightArm
			{
				OFFSET -3.136600 1.374050 -0.404650 
				CHANNELS 3 Zrotation Yrotation Xrotation
				JOINT RightForeArm
				{
					OFFSET -5.241900 -0.000000 -0.000000 
					CHANNELS 3 Zrotation Yrotation Xrotation
					JOINT RightHand
					{
						OFFSET -3.444170 -0.000000 -0.000000 
						CHANNELS 3 Zrotation Yrotation Xrotation
						JOINT RightHandIndex1
						{
							OFFSET -0.622530 -0.000000 -0.000000 
							CHANNELS 3 Zrotation Yrotation Xrotation
							End Site
							{
								OFFSET 0.000000 0.000000 0.000000 
							}
						}
					}
				}
			}
		}
	}
}
MOTION
Frames: 16
Frame Time: 0.041667
-4.236599 15.350298 48.156325 6.465015 18.423190 7.871673 -5.984344 4.455079 4.367817 -0.593054 5.433303 20.396674 -14.411852 30.751431 -6.539518 1.751300 -8.327700 -23.713900 4.415278 -11.230684 -49.975751 -7.656580 -20.745417 52.537498 -5.322359 10.988697 23.848281 -0.000200 -0.095200 0.261700 1.834084 -11.913858 -3.082590 11.567335 -5.188294 -9.681177 9.712961 -29.679764 6.806789 8.582200 -14.904400 4.568800 -76.173449 -2.846139 32.823258 10.966394 -19.769720 -3.896083 -3.434980 -1.421087 18.264424 -7.125000 0.000000 0.000000 66.346547 0.276134 44.066292 -15.224161 25.134866 -6.220971 2.317377 5.128552 8.255307 7.125000 0.000000 0.000000 
-4.229994 15.352804 48.155300 6.446456 18.441456 7.886882 -5.979251 4.440148 4.354370 -0.593023 5.433895 20.384467 -14.432271 30.788159 -6.514525 1.758600 -8.344100 -23.764100 4.407079 -11.231373 -49.958154 -7.642743 -20.736196 52.502766 -5.320423 10.981145 23.927385 -0.000900 -0.189200 0.519700 1.842432 -11.955840 -3.081883 11.613772 -5.212571 -9.648357 9.726046 -29.675091 6.805380 8.588400 -14.898900 4.569100 -76.081573 -3.067315 32.890022 11.055259 -19.847726 -3.941285 -3.452848 -1.423723 18.138843 -7.125000 0.000000 0.000000 66.319780 0.341409 44.039507 -15.031530 24.932630 -6.126431 2.321624 5.140101 8.286660 7.125000 0.000000 0.000000 
-4.222477 15.355879 48.152453 6.398229 18.438593 7.867138 -5.971611 4.424801 4.341826 -0.589035 5.449693 20.443038 -14.414394 30.754557 -6.598655 1.744800 -8.312900 -23.668500 4.437604 -11.238299 -49.938825 -7.624495 -20.720959 52.448159 -5.311329 10.918612 23.913170 0.000000 0.012200 -0.033400 1.845107 -11.956020 -3.084062 11.617292 -5.212518 -9.685654 9.724938 -29.689681 6.797218 8.585200 -14.905400 4.554500 -76.002958 -3.248409 33.026071 11.172776 -19.952583 -4.005151 -3.488912 -1.486949 18.218156 -7.125000 0.000000 0.000000 66.311984 0.319574 43.923391 -14.852612 24.745926 -6.036068 2.333669 5.133317 8.358261 7.125000 0.000000 0.000000 
-4.220313 15.356107 48.154730 6.382094 18.397151 7.930509 -5.972049 4.473287 4.254137 -0.581128 5.462240 20.473865 -14.426632 30.773552 -6.604647 1.752100 -8.329400 -23.719000 4.421244 -11.147829 -49.960532 -7.604296 -20.722657 52.402322 -5.288568 10.853628 23.994853 -0.000000 0.032900 -0.090400 1.855692 -11.983890 -3.083598 11.693570 -5.232990 -9.590026 9.720372 -29.672460 6.809725 8.548100 -14.891500 4.555300 -75.883995 -3.485803 33.047969 11.234201 -20.005026 -4.023806 -3.464070 -1.400696 17.890817 -7.125000 0.000000 0.000000 66.292830 0.583369 43.876768 -14.608370 24.458642 -5.911424 2.344065 5.138235 8.391139 7.125000 0.000000 0.000000 
-4.220882 15.363510 48.156667 6.043052 18.358297 7.964851 -5.681508 4.557431 4.036933 -0.550185 5.456689 20.486789 -14.447618 30.764167 -6.500714 1.740700 -8.303800 -23.640700 4.699434 -11.009543 -50.046430 -7.566983 -20.739821 52.366024 -5.215985 10.611604 23.926151 -0.000400 -0.122400 0.336200 1.872709 -11.921184 -3.087983 11.704340 -5.216099 -9.618860 9.710390 -29.693802 6.823649 8.548400 -14.908500 4.560100 -75.837130 -3.646875 33.189869 11.304491 -20.062132 -4.056454 -3.479745 -1.394286 17.847289 -7.125000 0.000000 0.000000 66.287649 0.485946 43.746711 -14.481014 24.336285 -5.851424 2.352045 5.134974 8.455620 7.125000 0.000000 0.000000 
-4.212796 15.363738 48.154503 6.170738 18.369662 8.005297 -5.820113 4.527520 4.059045 -0.564607 5.470982 20.505989 -14.432298 30.753096 -6.575931 1.747900 -8.319900 -23.690100 4.579621 -11.049817 -50.036205 -7.574381 -20.725563 52.339981 -5.224413 10.618828 23.932361 -0.000500 0.144200 -0.396300 1.868353 -11.960732 -3.091417 11.718371 -5.229192 -9.620298 9.718818 -29.715257 6.827293 8.547400 -14.919400 4.570200 -75.740062 -3.843688 33.298734 11.398219 -20.138988 -4.099270 -3.487749 -1.412265 17.540056 -7.125000 0.000000 0.000000 66.274162 0.359990 43.701389 -14.431767 24.298398 -5.822803 2.366317 5.117941 8.472286 7.125000 0.000000 0.000000 
-4.206190 15.359979 48.156553 6.332135 18.333649 7.998464 -5.984737 4.546363 4.168377 -0.585439 5.464263 20.498779 -14.367408 30.656043 -6.659837 1.728100 -8.275200 -23.553000 4.398356 -11.023937 -49.959106 -7.578618 -20.718451 52.317567 -5.248644 10.686418 23.962547 -0.000200 0.084800 -0.232900 1.866172 -11.998199 -3.092104 11.793200 -5.238434 -9.594406 9.708033 -29.713435 6.852578 8.522700 -14.921700 4.589500 -75.675510 -4.012825 33.318517 11.478547 -20.211718 -4.139512 -3.493220 -1.421635 17.449753 -7.125000 0.000000 0.000000 66.214892 0.375379 43.762675 -14.327554 24.184932 -5.768352 2.370373 5.122105 8.439040 7.125000 0.000000 0.000000 
-4.205393 15.362599 48.162133 6.178079 18.297636 7.997112 -5.842961 4.623807 4.128663 -0.580219 5.423861 20.398009 -14.395557 30.685853 -6.523795 1.731000 -8.281800 -23.573200 4.500363 -10.918066 -49.971412 -7.565066 -20.737771 52.311791 -5.204256 10.547977 23.967476 -0.002000 0.288300 -0.792000 1.870440 -11.940669 -3.089159 11.801446 -5.220635 -9.594684 9.711683 -29.743865 6.858533 8.535700 -14.940100 4.595200 -75.629257 -4.124735 33.494400 11.590406 -20.319878 -4.191110 -3.507609 -1.426046 17.318346 -7.125000 0.000000 0.000000 66.218787 0.244075 43.655366 -14.242110 24.118426 -5.733360 2.350934 5.136189 8.489639 7.125000 0.000000 0.000000 
-4.197306 15.373533 48.164184 6.190841 18.314430 8.030056 -5.802590 4.867959 4.041457 -0.569012 5.389548 20.307573 -14.366456 30.620376 -6.269160 1.765200 -8.358900 -23.809500 4.479734 -10.943827 -49.929641 -7.544245 -20.720841 52.246653 -5.217471 10.557709 23.967850 -0.002800 0.340800 -0.936500 1.869374 -11.947496 -3.091148 11.795637 -5.225269 -9.603377 9.716625 -29.761076 6.856229 8.540300 -14.948800 4.601000 -75.577377 -4.267644 33.538188 11.704043 -20.414461 -4.233784 -3.483194 -1.438626 17.138116 -7.125000 0.000000 0.000000 66.191867 0.270348 43.589770 -14.126534 23.998293 -5.681074 2.360966 5.137520 8.508171 7.125000 0.000000 0.000000 
-4.188878 15.372394 48.165095 6.403317 18.336248 8.064762 -5.979370 4.915778 4.096451 -0.587567 5.385891 20.283515 -14.313095 30.542935 -6.261856 1.767000 -8.363000 -23.822100 4.275075 -10.999181 -49.867343 -7.557582 -20.703760 52.231214 -5.255063 10.668473 24.015808 -0.001600 0.254700 -0.699900 1.865935 -12.019545 -3.100990 11.868916 -5.234921 -9.648668 9.727764 -29.760437 6.863699 8.557600 -14.952800 4.616400 -75.586132 -4.323444 33.482795 11.841742 -20.548518 -4.300912 -3.481111 -1.449690 17.155591 -7.125000 0.000000 0.000000 66.176010 0.154064 43.550459 -14.089822 23.966961 -5.661805 2.348899 5.140125 8.583226 7.125000 0.000000 0.000000 
-4.181133 15.380366 48.164525 6.256865 18.395798 8.075636 -5.852910 4.902874 4.047095 -0.588317 5.364077 20.217908 -14.333221 30.559669 -6.182283 1.773700 -8.377900 -23.868000 4.417106 -11.066776 -49.902766 -7.544628 -20.694667 52.212911 -5.246045 10.621303 23.975265 -0.002300 0.312600 -0.858800 1.874518 -12.045555 -3.102115 11.835301 -5.262806 -9.639984 9.731754 -29.761270 6.859308 8.556600 -14.951100 4.620800 -75.514540 -4.471834 33.545467 11.941902 -20.629627 -4.341795 -3.472839 -1.441276 16.918064 -7.125000 0.000000 0.000000 66.153573 0.195435 43.518667 -14.018736 23.890891 -5.624460 2.364927 5.126564 8.656911 7.125000 0.000000 0.000000 
-4.175325 15.365902 48.160197 6.382053 18.372494 8.057905 -6.088957 4.510056 4.295580 -0.641868 5.384161 20.235091 -14.371422 30.669545 -6.572453 1.740300 -8.302900 -23.637800 4.253774 -11.053250 -49.879170 -7.566643 -20.699603 52.251587 -5.269750 10.729195 24.051863 -0.000300 0.113700 -0.312400 1.866937 -12.064956 -3.097148 11.847596 -5.271785 -9.599258 9.728756 -29.783966 6.859309 8.534200 -14.958100 4.629300 -75.422134 -4.652773 33.605696 12.019070 -20.691597 -4.380227 -3.484191 -1.442529 16.684735 -7.125000 0.000000 0.000000 66.179016 0.266578 43.400181 -13.945896 23.808255 -5.592692 2.361781 5.130100 8.775517 7.125000 0.000000 0.000000 
-4.166783 15.367496 48.160197 6.427822 18.394042 8.056001 -6.146895 4.489356 4.313907 -0.629535 5.406659 20.267421 -14.442338 30.816827 -6.550216 1.770200 -8.370200 -23.844200 4.230297 -11.129177 -49.874753 -7.581127 -20.689356 52.258549 -5.278892 10.729087 23.957009 -0.000700 0.166200 -0.456800 1.868373 -12.114738 -3.103616 11.863946 -5.285966 -9.633516 9.741811 -29.782730 6.848515 8.543800 -14.956100 4.624000 -75.415432 -4.699446 33.547647 12.142502 -20.809275 -4.442178 -3.485389 -1.458120 16.561805 -7.125000 0.000000 0.000000 66.136968 0.283932 43.461650 -13.918632 23.768904 -5.570696 2.390660 5.107569 8.763256 7.125000 0.000000 0.000000 
-4.161202 15.368521 48.155869 6.310468 18.370038 8.068124 -6.079499 4.520685 4.222080 -0.614390 5.423170 20.324987 -14.451280 30.822263 -6.580439 1.765400 -8.359300 -23.810800 4.318564 -11.112042 -49.918594 -7.563435 -20.687877 52.244246 -5.273898 10.729375 23.997764 -0.000500 0.149200 -0.410000 1.877119 -12.121672 -3.109808 11.890859 -5.287287 -9.664857 9.720968 -29.806284 6.871550 8.519000 -14.974900 4.656200 -75.412535 -4.823114 33.465751 12.212996 -20.859757 -4.474627 -3.480741 -1.419746 16.510393 -7.125000 0.000000 0.000000 66.087137 0.422551 43.440655 -13.849707 23.675546 -5.540448 2.408669 5.108518 8.810424 7.125000 0.000000 0.000000 
-4.160291 15.366130 48.162133 6.272498 18.275069 8.030597 -6.088665 4.573647 4.226962 -0.609260 5.438974 20.430576 -14.364016 30.662099 -6.753692 1.744000 -8.311100 -23.663000 4.327193 -11.005264 -49.904351 -7.554605 -20.698020 52.235163 -5.254644 10.671065 23.993368 -0.003600 0.388300 -1.066800 1.878474 -12.092936 -3.108675 11.928167 -5.269401 -9.670440 9.725155 -29.801992 6.855476 8.529100 -14.968900 4.618100 -75.361784 -4.879707 33.508726 12.279476 -20.931121 -4.511988 -3.488375 -1.483777 16.345282 -7.125000 0.000000 0.000000 66.090187 0.383228 43.464480 -13.845947 23.678188 -5.547364 2.379015 5.141790 8.794414 7.125000 0.000000 0.000000 
-4.158241 15.370457 48.169195 6.059021 18.199990 7.994047 -5.919156 4.650880 4.133193 -0.572660 5.445581 20.464143 -14.461450 30.826204 -6.720298 1.766300 -8.361400 -23.817200 4.487986 -10.890837 -49.908808 -7.533614 -20.713692 52.223490 -5.212398 10.525975 23.930203 -0.005700 0.486600 -1.337100 1.890218 -12.053800 -3.101569 11.936534 -5.273245 -9.605883 9.722120 -29.791446 6.850099 8.523500 -14.957700 4.597700 -75.336130 -4.978140 33.464283 12.339968 -20.987052 -4.539309 -3.479578 -1.448603 16.272590 -7.125000 0.000000 0.000000 66.048268 0.284249 43.518442 -13.938958 23.794702 -5.590299 2.372536 5.141145 8.788745 7.125000 0.000000 0.000000 
